<svg xmlns="http://www.w3.org/2000/svg" xmlns:xlink="http://www.w3.org/1999/xlink" width="490" zoomAndPan="magnify" viewBox="0 0 367.5 131.249995" height="175" preserveAspectRatio="xMidYMid meet" version="1.0"><defs><g/></defs><g fill="#ffffff" fill-opacity="1"><g transform="translate(24.154607, 83.018161)"><g><path d="M 4.046875 -55.625 L 21.3125 -55.625 C 26.519531 -55.625 30.675781 -54.507812 33.78125 -52.28125 C 36.882812 -50.0625 38.4375 -46.457031 38.4375 -41.46875 C 38.4375 -35.894531 36.117188 -31.914062 31.484375 -29.53125 C 39.398438 -28.132812 43.359375 -23.457031 43.359375 -15.5 C 43.359375 -10.832031 41.738281 -7.082031 38.5 -4.25 C 35.257812 -1.414062 30.804688 0 25.140625 0 L 4.046875 0 Z M 16.71875 -33.84375 L 17.734375 -33.84375 C 20.566406 -33.84375 22.675781 -34.335938 24.0625 -35.328125 C 25.457031 -36.316406 26.15625 -37.9375 26.15625 -40.1875 C 26.15625 -43.957031 23.347656 -45.84375 17.734375 -45.84375 L 16.71875 -45.84375 Z M 16.71875 -9.78125 L 20.703125 -9.78125 C 26.898438 -9.78125 30 -11.847656 30 -15.984375 C 30 -18.453125 29.222656 -20.222656 27.671875 -21.296875 C 26.117188 -22.378906 23.796875 -22.921875 20.703125 -22.921875 L 16.71875 -22.921875 Z M 16.71875 -9.78125 "/></g></g></g><g fill="#ffffff" fill-opacity="1"><g transform="translate(63.796297, 83.018161)"><g><path d="M 39.03125 -15.640625 L 13.953125 -15.640625 C 13.953125 -13.210938 14.738281 -11.414062 16.3125 -10.25 C 17.882812 -9.082031 19.59375 -8.5 21.4375 -8.5 C 23.375 -8.5 24.898438 -8.753906 26.015625 -9.265625 C 27.140625 -9.785156 28.425781 -10.8125 29.875 -12.34375 L 38.5 -8.015625 C 34.90625 -1.992188 28.925781 1.015625 20.5625 1.015625 C 15.351562 1.015625 10.878906 -0.769531 7.140625 -4.34375 C 3.410156 -7.914062 1.546875 -12.21875 1.546875 -17.25 C 1.546875 -22.289062 3.410156 -26.609375 7.140625 -30.203125 C 10.878906 -33.796875 15.351562 -35.59375 20.5625 -35.59375 C 26.050781 -35.59375 30.515625 -34.007812 33.953125 -30.84375 C 37.390625 -27.675781 39.109375 -23.148438 39.109375 -17.265625 C 39.109375 -16.453125 39.082031 -15.910156 39.03125 -15.640625 Z M 14.296875 -22.25 L 27.4375 -22.25 C 27.164062 -24.050781 26.457031 -25.429688 25.3125 -26.390625 C 24.164062 -27.359375 22.695312 -27.84375 20.90625 -27.84375 C 18.925781 -27.84375 17.347656 -27.328125 16.171875 -26.296875 C 15.003906 -25.265625 14.378906 -23.914062 14.296875 -22.25 Z M 14.296875 -22.25 "/></g></g></g><g fill="#ffffff" fill-opacity="1"><g transform="translate(99.190568, 83.018161)"><g><path d="M 4.046875 0 L 4.046875 -34.59375 L 15.984375 -34.59375 L 15.984375 -30.953125 L 16.109375 -30.953125 C 19.210938 -34.046875 22.519531 -35.59375 26.03125 -35.59375 C 27.738281 -35.59375 29.429688 -35.367188 31.109375 -34.921875 C 32.796875 -34.472656 34.414062 -33.773438 35.96875 -32.828125 C 37.519531 -31.890625 38.773438 -30.554688 39.734375 -28.828125 C 40.703125 -27.097656 41.1875 -25.082031 41.1875 -22.78125 L 41.1875 0 L 29.265625 0 L 29.265625 -19.546875 C 29.265625 -21.347656 28.691406 -22.921875 27.546875 -24.265625 C 26.398438 -25.617188 24.90625 -26.296875 23.0625 -26.296875 C 21.257812 -26.296875 19.628906 -25.597656 18.171875 -24.203125 C 16.710938 -22.804688 15.984375 -21.253906 15.984375 -19.546875 L 15.984375 0 Z M 4.046875 0 "/></g></g></g><g fill="#ffffff" fill-opacity="1"><g transform="translate(138.495165, 83.018161)"><g><path d="M 6.40625 -4.28125 C 3.164062 -7.8125 1.546875 -12.140625 1.546875 -17.265625 C 1.546875 -22.390625 3.164062 -26.722656 6.40625 -30.265625 C 9.644531 -33.816406 13.757812 -35.59375 18.75 -35.59375 C 23.332031 -35.59375 27.101562 -34.15625 30.0625 -31.28125 L 30.0625 -34.59375 L 42 -34.59375 L 42 0 L 30.203125 0 L 30.203125 -3.90625 L 30.0625 -3.90625 C 27.101562 -0.625 23.332031 1.015625 18.75 1.015625 C 13.757812 1.015625 9.644531 -0.75 6.40625 -4.28125 Z M 16.546875 -23.125 C 14.992188 -21.59375 14.21875 -19.632812 14.21875 -17.25 C 14.21875 -14.875 14.957031 -12.929688 16.4375 -11.421875 C 17.925781 -9.921875 19.882812 -9.171875 22.3125 -9.171875 C 24.65625 -9.171875 26.578125 -9.929688 28.078125 -11.453125 C 29.585938 -12.984375 30.34375 -14.921875 30.34375 -17.265625 C 30.34375 -19.640625 29.566406 -21.59375 28.015625 -23.125 C 26.460938 -24.65625 24.5625 -25.421875 22.3125 -25.421875 C 20.019531 -25.421875 18.097656 -24.65625 16.546875 -23.125 Z M 16.546875 -23.125 "/></g></g></g><g fill="#ffffff" fill-opacity="1"><g transform="translate(179.282988, 83.018161)"><g><path d="M 4.046875 0 L 4.046875 -34.59375 L 15.984375 -34.59375 L 15.984375 -30.953125 L 16.109375 -30.953125 C 19.210938 -34.046875 22.519531 -35.59375 26.03125 -35.59375 C 28.539062 -35.59375 30.894531 -35.078125 33.09375 -34.046875 C 35.300781 -33.015625 36.96875 -31.421875 38.09375 -29.265625 C 41.601562 -33.484375 45.425781 -35.59375 49.5625 -35.59375 C 53.238281 -35.59375 56.40625 -34.554688 59.0625 -32.484375 C 61.71875 -30.421875 63.046875 -27.1875 63.046875 -22.78125 L 63.046875 0 L 51.109375 0 L 51.109375 -19.546875 C 51.109375 -21.390625 50.601562 -22.929688 49.59375 -24.171875 C 48.582031 -25.410156 47.0625 -26.03125 45.03125 -26.03125 C 43.28125 -26.03125 41.941406 -25.5 41.015625 -24.4375 C 40.097656 -23.382812 39.597656 -22.113281 39.515625 -20.625 L 39.515625 0 L 27.578125 0 L 27.578125 -19.546875 C 27.578125 -21.390625 27.070312 -22.929688 26.0625 -24.171875 C 25.050781 -25.410156 23.53125 -26.03125 21.5 -26.03125 C 19.664062 -26.03125 18.285156 -25.457031 17.359375 -24.3125 C 16.441406 -23.164062 15.984375 -21.804688 15.984375 -20.234375 L 15.984375 0 Z M 4.046875 0 "/></g></g></g><g fill="#ffffff" fill-opacity="1"><g transform="translate(240.431446, 83.018161)"><g><path d="M 7.3125 -4.109375 C 3.46875 -7.523438 1.546875 -11.90625 1.546875 -17.25 C 1.546875 -22.601562 3.546875 -27 7.546875 -30.4375 C 11.546875 -33.875 16.492188 -35.59375 22.390625 -35.59375 C 28.179688 -35.59375 33.066406 -33.863281 37.046875 -30.40625 C 41.023438 -26.945312 43.015625 -22.5625 43.015625 -17.25 C 43.015625 -11.945312 41.066406 -7.578125 37.171875 -4.140625 C 33.285156 -0.703125 28.359375 1.015625 22.390625 1.015625 C 16.179688 1.015625 11.15625 -0.691406 7.3125 -4.109375 Z M 16.546875 -23.125 C 14.992188 -21.59375 14.21875 -19.632812 14.21875 -17.25 C 14.21875 -14.875 14.957031 -12.929688 16.4375 -11.421875 C 17.925781 -9.921875 19.882812 -9.171875 22.3125 -9.171875 C 24.65625 -9.171875 26.578125 -9.929688 28.078125 -11.453125 C 29.585938 -12.984375 30.34375 -14.921875 30.34375 -17.265625 C 30.34375 -19.640625 29.566406 -21.59375 28.015625 -23.125 C 26.460938 -24.65625 24.5625 -25.421875 22.3125 -25.421875 C 20.019531 -25.421875 18.097656 -24.65625 16.546875 -23.125 Z M 16.546875 -23.125 "/></g></g></g><g fill="#ffffff" fill-opacity="1"><g transform="translate(279.736043, 83.018161)"><g><path d="M 4.046875 0 L 4.046875 -34.59375 L 15.984375 -34.59375 L 15.984375 -30.953125 L 16.109375 -30.953125 C 19.210938 -34.046875 22.519531 -35.59375 26.03125 -35.59375 C 27.738281 -35.59375 29.429688 -35.367188 31.109375 -34.921875 C 32.796875 -34.472656 34.414062 -33.773438 35.96875 -32.828125 C 37.519531 -31.890625 38.773438 -30.554688 39.734375 -28.828125 C 40.703125 -27.097656 41.1875 -25.082031 41.1875 -22.78125 L 41.1875 0 L 29.265625 0 L 29.265625 -19.546875 C 29.265625 -21.347656 28.691406 -22.921875 27.546875 -24.265625 C 26.398438 -25.617188 24.90625 -26.296875 23.0625 -26.296875 C 21.257812 -26.296875 19.628906 -25.597656 18.171875 -24.203125 C 16.710938 -22.804688 15.984375 -21.253906 15.984375 -19.546875 L 15.984375 0 Z M 4.046875 0 "/></g></g></g><g fill="#ffffff" fill-opacity="1"><g transform="translate(319.04064, 83.018161)"><g><path d="M 11.734375 -14.421875 C 13.890625 -14.421875 15.71875 -13.664062 17.21875 -12.15625 C 18.726562 -10.65625 19.484375 -8.828125 19.484375 -6.671875 C 19.484375 -4.554688 18.726562 -2.742188 17.21875 -1.234375 C 15.71875 0.265625 13.890625 1.015625 11.734375 1.015625 C 9.617188 1.015625 7.804688 0.265625 6.296875 -1.234375 C 4.796875 -2.742188 4.046875 -4.554688 4.046875 -6.671875 C 4.046875 -8.828125 4.796875 -10.65625 6.296875 -12.15625 C 7.804688 -13.664062 9.617188 -14.421875 11.734375 -14.421875 Z M 11.734375 -14.421875 "/></g></g></g><g fill="#ffffff" fill-opacity="1"><g transform="translate(142.613441, 118.279795)"><g><path d="M 1.078125 -8 L 2.859375 -8 C 3.234375 -8 3.570312 -7.945312 3.875 -7.84375 C 4.1875 -7.738281 4.453125 -7.59375 4.671875 -7.40625 C 4.898438 -7.21875 5.078125 -6.992188 5.203125 -6.734375 C 5.328125 -6.484375 5.390625 -6.207031 5.390625 -5.90625 C 5.390625 -5.539062 5.296875 -5.210938 5.109375 -4.921875 C 4.929688 -4.640625 4.675781 -4.40625 4.34375 -4.21875 C 4.800781 -4.050781 5.164062 -3.796875 5.4375 -3.453125 C 5.707031 -3.109375 5.84375 -2.707031 5.84375 -2.25 C 5.84375 -1.914062 5.773438 -1.613281 5.640625 -1.34375 C 5.503906 -1.070312 5.316406 -0.832031 5.078125 -0.625 C 4.835938 -0.425781 4.546875 -0.269531 4.203125 -0.15625 C 3.867188 -0.0507812 3.503906 0 3.109375 0 L 1.078125 0 Z M 3.109375 -0.78125 C 3.679688 -0.78125 4.140625 -0.914062 4.484375 -1.1875 C 4.835938 -1.457031 5.015625 -1.828125 5.015625 -2.296875 C 5.015625 -2.742188 4.835938 -3.101562 4.484375 -3.375 C 4.140625 -3.65625 3.679688 -3.796875 3.109375 -3.796875 L 1.90625 -3.796875 L 1.90625 -0.78125 Z M 2.859375 -4.53125 C 3.378906 -4.53125 3.789062 -4.648438 4.09375 -4.890625 C 4.40625 -5.128906 4.5625 -5.453125 4.5625 -5.859375 C 4.5625 -6.273438 4.40625 -6.601562 4.09375 -6.84375 C 3.78125 -7.09375 3.367188 -7.21875 2.859375 -7.21875 L 1.90625 -7.21875 L 1.90625 -4.53125 Z M 2.859375 -4.53125 "/></g></g></g><g fill="#ffffff" fill-opacity="1"><g transform="translate(152.755634, 118.279795)"><g><path d="M 4.59375 0.125 C 4.039062 0.125 3.519531 0.015625 3.03125 -0.203125 C 2.550781 -0.421875 2.128906 -0.710938 1.765625 -1.078125 C 1.410156 -1.453125 1.125 -1.890625 0.90625 -2.390625 C 0.695312 -2.890625 0.59375 -3.425781 0.59375 -4 C 0.59375 -4.5625 0.695312 -5.09375 0.90625 -5.59375 C 1.125 -6.09375 1.410156 -6.53125 1.765625 -6.90625 C 2.128906 -7.28125 2.550781 -7.578125 3.03125 -7.796875 C 3.519531 -8.015625 4.039062 -8.125 4.59375 -8.125 C 5.144531 -8.125 5.660156 -8.015625 6.140625 -7.796875 C 6.628906 -7.578125 7.054688 -7.28125 7.421875 -6.90625 C 7.785156 -6.53125 8.070312 -6.09375 8.28125 -5.59375 C 8.488281 -5.101562 8.59375 -4.570312 8.59375 -4 C 8.59375 -3.4375 8.488281 -2.90625 8.28125 -2.40625 C 8.070312 -1.90625 7.785156 -1.46875 7.421875 -1.09375 C 7.054688 -0.71875 6.628906 -0.421875 6.140625 -0.203125 C 5.660156 0.015625 5.144531 0.125 4.59375 0.125 Z M 4.59375 -0.703125 C 5.03125 -0.703125 5.441406 -0.785156 5.828125 -0.953125 C 6.210938 -1.117188 6.539062 -1.347656 6.8125 -1.640625 C 7.082031 -1.941406 7.296875 -2.289062 7.453125 -2.6875 C 7.617188 -3.09375 7.703125 -3.53125 7.703125 -4 C 7.703125 -4.46875 7.617188 -4.898438 7.453125 -5.296875 C 7.296875 -5.703125 7.082031 -6.050781 6.8125 -6.34375 C 6.539062 -6.644531 6.210938 -6.878906 5.828125 -7.046875 C 5.441406 -7.210938 5.03125 -7.296875 4.59375 -7.296875 C 4.144531 -7.296875 3.734375 -7.210938 3.359375 -7.046875 C 2.984375 -6.878906 2.65625 -6.644531 2.375 -6.34375 C 2.101562 -6.050781 1.890625 -5.703125 1.734375 -5.296875 C 1.578125 -4.898438 1.5 -4.46875 1.5 -4 C 1.5 -3.53125 1.578125 -3.09375 1.734375 -2.6875 C 1.890625 -2.289062 2.101562 -1.941406 2.375 -1.640625 C 2.65625 -1.347656 2.984375 -1.117188 3.359375 -0.953125 C 3.734375 -0.785156 4.144531 -0.703125 4.59375 -0.703125 Z M 4.59375 -0.703125 "/></g></g></g><g fill="#ffffff" fill-opacity="1"><g transform="translate(165.52283, 118.279795)"><g><path d="M 3.890625 0.125 C 3.460938 0.125 3.070312 0.0390625 2.71875 -0.125 C 2.363281 -0.289062 2.0625 -0.519531 1.8125 -0.8125 C 1.5625 -1.101562 1.363281 -1.457031 1.21875 -1.875 C 1.082031 -2.289062 1.015625 -2.75 1.015625 -3.25 L 1.015625 -8 L 1.84375 -8 L 1.84375 -3.3125 C 1.84375 -2.914062 1.894531 -2.550781 2 -2.21875 C 2.101562 -1.894531 2.242188 -1.613281 2.421875 -1.375 C 2.609375 -1.144531 2.828125 -0.96875 3.078125 -0.84375 C 3.335938 -0.71875 3.628906 -0.65625 3.953125 -0.65625 C 4.265625 -0.65625 4.550781 -0.71875 4.8125 -0.84375 C 5.070312 -0.96875 5.289062 -1.144531 5.46875 -1.375 C 5.65625 -1.613281 5.796875 -1.894531 5.890625 -2.21875 C 5.992188 -2.550781 6.046875 -2.914062 6.046875 -3.3125 L 6.046875 -8 L 6.859375 -8 L 6.859375 -3.25 C 6.859375 -2.75 6.785156 -2.289062 6.640625 -1.875 C 6.492188 -1.457031 6.289062 -1.101562 6.03125 -0.8125 C 5.769531 -0.519531 5.453125 -0.289062 5.078125 -0.125 C 4.710938 0.0390625 4.316406 0.125 3.890625 0.125 Z M 3.890625 0.125 "/></g></g></g><g fill="#ffffff" fill-opacity="1"><g transform="translate(176.977531, 118.279795)"><g><path d="M 2.984375 -7.21875 L 0.359375 -7.21875 L 0.359375 -8 L 6.453125 -8 L 6.453125 -7.21875 L 3.8125 -7.21875 L 3.8125 0 L 2.984375 0 Z M 2.984375 -7.21875 "/></g></g></g><g fill="#ffffff" fill-opacity="1"><g transform="translate(187.358364, 118.279795)"><g><path d="M 1.078125 -8 L 1.90625 -8 L 1.90625 0 L 1.078125 0 Z M 1.078125 -8 "/></g></g></g><g fill="#ffffff" fill-opacity="1"><g transform="translate(193.921008, 118.279795)"><g><path d="M 4.59375 -0.703125 C 5.03125 -0.703125 5.441406 -0.785156 5.828125 -0.953125 C 6.210938 -1.117188 6.539062 -1.347656 6.8125 -1.640625 C 7.082031 -1.941406 7.296875 -2.289062 7.453125 -2.6875 C 7.617188 -3.09375 7.703125 -3.53125 7.703125 -4 C 7.703125 -4.46875 7.617188 -4.898438 7.453125 -5.296875 C 7.296875 -5.703125 7.082031 -6.050781 6.8125 -6.34375 C 6.539062 -6.644531 6.210938 -6.878906 5.828125 -7.046875 C 5.441406 -7.210938 5.03125 -7.296875 4.59375 -7.296875 C 4.144531 -7.296875 3.734375 -7.210938 3.359375 -7.046875 C 2.984375 -6.878906 2.65625 -6.644531 2.375 -6.34375 C 2.101562 -6.050781 1.890625 -5.703125 1.734375 -5.296875 C 1.578125 -4.898438 1.5 -4.46875 1.5 -4 C 1.5 -3.53125 1.578125 -3.09375 1.734375 -2.6875 C 1.890625 -2.289062 2.101562 -1.941406 2.375 -1.640625 C 2.65625 -1.347656 2.984375 -1.117188 3.359375 -0.953125 C 3.734375 -0.785156 4.144531 -0.703125 4.59375 -0.703125 Z M 7.171875 2.203125 C 6.765625 2.203125 6.382812 2.148438 6.03125 2.046875 C 5.6875 1.941406 5.382812 1.796875 5.125 1.609375 C 4.863281 1.429688 4.648438 1.210938 4.484375 0.953125 C 4.316406 0.691406 4.210938 0.40625 4.171875 0.09375 C 3.671875 0.0390625 3.203125 -0.0976562 2.765625 -0.328125 C 2.328125 -0.566406 1.945312 -0.867188 1.625 -1.234375 C 1.300781 -1.597656 1.046875 -2.015625 0.859375 -2.484375 C 0.679688 -2.960938 0.59375 -3.46875 0.59375 -4 C 0.59375 -4.5625 0.695312 -5.09375 0.90625 -5.59375 C 1.125 -6.09375 1.410156 -6.53125 1.765625 -6.90625 C 2.128906 -7.28125 2.550781 -7.578125 3.03125 -7.796875 C 3.519531 -8.015625 4.039062 -8.125 4.59375 -8.125 C 5.144531 -8.125 5.660156 -8.015625 6.140625 -7.796875 C 6.628906 -7.578125 7.054688 -7.28125 7.421875 -6.90625 C 7.785156 -6.539062 8.070312 -6.109375 8.28125 -5.609375 C 8.488281 -5.109375 8.59375 -4.578125 8.59375 -4.015625 C 8.59375 -3.484375 8.503906 -2.984375 8.328125 -2.515625 C 8.148438 -2.046875 7.898438 -1.628906 7.578125 -1.265625 C 7.265625 -0.898438 6.894531 -0.597656 6.46875 -0.359375 C 6.039062 -0.117188 5.578125 0.03125 5.078125 0.09375 C 5.160156 0.488281 5.394531 0.800781 5.78125 1.03125 C 6.175781 1.257812 6.671875 1.375 7.265625 1.375 C 7.472656 1.375 7.644531 1.367188 7.78125 1.359375 C 7.925781 1.347656 8.039062 1.335938 8.125 1.328125 C 8.207031 1.316406 8.265625 1.304688 8.296875 1.296875 C 8.335938 1.285156 8.363281 1.28125 8.375 1.28125 L 8.46875 2.09375 C 8.445312 2.09375 8.332031 2.109375 8.125 2.140625 C 7.914062 2.179688 7.597656 2.203125 7.171875 2.203125 Z M 7.171875 2.203125 "/></g></g></g><g fill="#ffffff" fill-opacity="1"><g transform="translate(206.688203, 118.279795)"><g><path d="M 3.890625 0.125 C 3.460938 0.125 3.070312 0.0390625 2.71875 -0.125 C 2.363281 -0.289062 2.0625 -0.519531 1.8125 -0.8125 C 1.5625 -1.101562 1.363281 -1.457031 1.21875 -1.875 C 1.082031 -2.289062 1.015625 -2.75 1.015625 -3.25 L 1.015625 -8 L 1.84375 -8 L 1.84375 -3.3125 C 1.84375 -2.914062 1.894531 -2.550781 2 -2.21875 C 2.101562 -1.894531 2.242188 -1.613281 2.421875 -1.375 C 2.609375 -1.144531 2.828125 -0.96875 3.078125 -0.84375 C 3.335938 -0.71875 3.628906 -0.65625 3.953125 -0.65625 C 4.265625 -0.65625 4.550781 -0.71875 4.8125 -0.84375 C 5.070312 -0.96875 5.289062 -1.144531 5.46875 -1.375 C 5.65625 -1.613281 5.796875 -1.894531 5.890625 -2.21875 C 5.992188 -2.550781 6.046875 -2.914062 6.046875 -3.3125 L 6.046875 -8 L 6.859375 -8 L 6.859375 -3.25 C 6.859375 -2.75 6.785156 -2.289062 6.640625 -1.875 C 6.492188 -1.457031 6.289062 -1.101562 6.03125 -0.8125 C 5.769531 -0.519531 5.453125 -0.289062 5.078125 -0.125 C 4.710938 0.0390625 4.316406 0.125 3.890625 0.125 Z M 3.890625 0.125 "/></g></g></g><g fill="#ffffff" fill-opacity="1"><g transform="translate(218.142901, 118.279795)"><g><path d="M 1.078125 -8 L 5.1875 -8 L 5.1875 -7.21875 L 1.90625 -7.21875 L 1.90625 -4.53125 L 4.421875 -4.53125 L 4.421875 -3.765625 L 1.90625 -3.765625 L 1.90625 -0.78125 L 5.25 -0.78125 L 5.25 0 L 1.078125 0 Z M 1.078125 -8 "/></g></g></g></svg>